<svg width="17" height="13" viewBox="0 0 17 13" fill="none" xmlns="http://www.w3.org/2000/svg">
<path d="M15.5 6.5L15.854 6.854L16.207 6.5L15.854 6.146L15.5 6.5ZM0.5 6C0.367391 6 0.240215 6.05268 0.146446 6.14645C0.0526782 6.24022 -2.83539e-07 6.3674 -2.77742e-07 6.5C-2.71946e-07 6.63261 0.0526783 6.75979 0.146446 6.85356C0.240215 6.94733 0.367391 7 0.5 7L0.5 6ZM9.854 12.854L15.854 6.854L15.146 6.146L9.146 12.146L9.854 12.854ZM15.854 6.146L9.854 0.146003L9.146 0.854004L15.146 6.854L15.854 6.146ZM15.5 6L0.5 6L0.5 7L15.5 7L15.5 6Z" fill="white"/>
</svg>
