<svg width="43" height="47" viewBox="0 0 43 47" fill="none" xmlns="http://www.w3.org/2000/svg">
<path d="M2.10933 26.3666L18.984 2.17261V26.3666H2.10933ZM22.1479 26.3666C24.9955 18.4566 24.6159 7.82561 22.1479 0C32.1883 3.24836 39.8663 15.609 39.9929 26.3666H22.1479ZM40.2882 33.918C39.4233 35.268 38.4109 36.4281 37.2296 37.4195C35.8586 36.8078 34.6352 35.8586 33.6649 34.8039C30.522 38.8749 24.1729 38.8749 21.03 34.8039C17.9293 38.8749 11.538 38.8749 8.43731 34.8039C7.38265 35.8586 6.22252 36.8078 4.85145 37.4195C2.44682 35.4367 0.632798 32.6102 0 29.5306H42.06C41.7323 31.086 41.1325 32.5712 40.2882 33.918ZM39.9929 46.4052C37.757 46.4052 35.6476 45.8779 33.6649 44.8232C29.7837 46.9325 24.9112 46.9325 21.03 44.8232C17.1488 46.9325 12.2763 46.9325 8.43731 44.8232C5.84284 46.2787 2.86869 46.5107 0 46.4052V42.1866C2.97415 42.292 5.84284 41.9756 8.43731 40.0772C12.1075 42.7139 17.3176 42.7139 21.03 40.0772C24.7635 42.7139 29.9525 42.7139 33.6649 40.0772C36.2172 41.9756 39.1069 42.292 42.06 42.1866V46.4052H39.9929Z" fill="white"/>
</svg>
